<?xml version="1.0" encoding="UTF-8" standalone="no"?>
<!-- Created with Inkscape (http://www.inkscape.org/) -->

<svg
   xmlns:dc="http://purl.org/dc/elements/1.1/"
   xmlns:cc="http://creativecommons.org/ns#"
   xmlns:rdf="http://www.w3.org/1999/02/22-rdf-syntax-ns#"
   xmlns:svg="http://www.w3.org/2000/svg"
   xmlns="http://www.w3.org/2000/svg"
   xmlns:xlink="http://www.w3.org/1999/xlink"
   xmlns:sodipodi="http://sodipodi.sourceforge.net/DTD/sodipodi-0.dtd"
   xmlns:inkscape="http://www.inkscape.org/namespaces/inkscape"
   id="svg2"
   version="1.1"
   inkscape:version="0.47 r22583"
   width="193"
   height="136"
   sodipodi:docname="Logo Dreamland.svg">
  <metadata
     id="metadata8">
    <rdf:RDF>
      <cc:Work
         rdf:about="">
        <dc:format>image/svg+xml</dc:format>
        <dc:type
           rdf:resource="http://purl.org/dc/dcmitype/StillImage" />
        <dc:title></dc:title>
      </cc:Work>
    </rdf:RDF>
  </metadata>
  <defs
     id="defs6">
    <linearGradient
       id="linearGradient3622">
      <stop
         style="stop-color:#ef5002;stop-opacity:1;"
         offset="0"
         id="stop3624" />
      <stop
         id="stop3634"
         offset="0.25"
         style="stop-color:#f06102;stop-opacity:1;" />
      <stop
         id="stop3632"
         offset="0.5"
         style="stop-color:#f17202;stop-opacity:1;" />
      <stop
         id="stop3630"
         offset="0.75"
         style="stop-color:#f49703;stop-opacity:1;" />
      <stop
         style="stop-color:#f9e004;stop-opacity:1;"
         offset="1"
         id="stop3626" />
    </linearGradient>
    <linearGradient
       inkscape:collect="always"
       xlink:href="#linearGradient3622"
       id="linearGradient3850"
       gradientUnits="userSpaceOnUse"
       x1="131.65854"
       y1="49.875"
       x2="211.91667"
       y2="49.875"
       gradientTransform="translate(-4,-4)" />
    <linearGradient
       inkscape:collect="always"
       xlink:href="#linearGradient3622"
       id="linearGradient3835"
       gradientUnits="userSpaceOnUse"
       x1="237.87213"
       y1="73.640625"
       x2="56.274719"
       y2="73.640625"
       gradientTransform="translate(-4,-4)" />
    <linearGradient
       inkscape:collect="always"
       xlink:href="#linearGradient3622"
       id="linearGradient3838"
       gradientUnits="userSpaceOnUse"
       x1="-90.595268"
       y1="68.453125"
       x2="171.53375"
       y2="68.453125"
       gradientTransform="translate(-4,-4)" />
    <linearGradient
       inkscape:collect="always"
       xlink:href="#linearGradient3622"
       id="linearGradient3841"
       gradientUnits="userSpaceOnUse"
       x1="295.01312"
       y1="44.796875"
       x2="107.9375"
       y2="44.796875"
       gradientTransform="translate(-4,-4)" />
    <linearGradient
       inkscape:collect="always"
       xlink:href="#linearGradient3622"
       id="linearGradient3844"
       gradientUnits="userSpaceOnUse"
       x1="68.564034"
       y1="68.453125"
       x2="190.6284"
       y2="68.453125"
       gradientTransform="translate(-4,-4)" />
    <linearGradient
       inkscape:collect="always"
       xlink:href="#linearGradient3622"
       id="linearGradient3847"
       gradientUnits="userSpaceOnUse"
       x1="331.61703"
       y1="102.43461"
       x2="126.25096"
       y2="102.43461"
       gradientTransform="translate(-4,-4)" />
    <linearGradient
       inkscape:collect="always"
       xlink:href="#linearGradient3622"
       id="linearGradient3856"
       gradientUnits="userSpaceOnUse"
       x1="48.460209"
       y1="24.936291"
       x2="109.13322"
       y2="85.609299"
       gradientTransform="translate(-4,-4)" />
    <linearGradient
       inkscape:collect="always"
       xlink:href="#linearGradient3622"
       id="linearGradient3853"
       gradientUnits="userSpaceOnUse"
       x1="-65.417053"
       y1="49.21875"
       x2="119.53082"
       y2="49.21875"
       gradientTransform="translate(-4,-4)" />
  </defs>
  <sodipodi:namedview
     pagecolor="#ffffff"
     bordercolor="#666666"
     borderopacity="1"
     objecttolerance="10"
     gridtolerance="10"
     guidetolerance="10"
     inkscape:pageopacity="0"
     inkscape:pageshadow="2"
     inkscape:window-width="640"
     inkscape:window-height="480"
     id="namedview4"
     showgrid="false"
     inkscape:object-nodes="true"
     inkscape:snap-smooth-nodes="true"
     inkscape:zoom="1.4142135"
     inkscape:cx="314.17558"
     inkscape:cy="90.498072"
     inkscape:current-layer="svg2"
     inkscape:snap-nodes="false" />
  <path
     style="fill:#bbd5f0;fill-opacity:1;stroke:#5b7492;stroke-width:1;stroke-linejoin:round;stroke-miterlimit:4;stroke-opacity:1;stroke-dasharray:none"
     d="M 68,3 C 32.101491,3 3,32.101491 3,68 c 0,35.89851 29.101491,65 65,65 20.049331,0 37.98285,-9.07456 49.90625,-23.34375 C 110.20317,114.32789 101.16692,117 91.5,117 c -28.166523,0 -51,-22.833478 -51,-51 0,-28.166522 22.833477,-51 51,-51 6.5892,0 12.87482,1.256103 18.65625,3.53125 C 98.80614,8.849669 84.087654,3 68,3 z"
     id="path2818" />
  <g
     id="g3822">
    <path
       id="path3599"
       d="M 29.5,108 35,90 20.5,79 39,79 45.5,63 52,79 70.5,79 56,90 l 5.5,18 -16,-11 -16,11 z"
       style="fill:#ffffff;fill-opacity:1;stroke:#5b7492;stroke-width:1px;stroke-linecap:butt;stroke-linejoin:round;stroke-opacity:1" />
    <path
       id="path3603"
       d="M 39.938,79.969 23.4375,79.96875 36.284,89.663 31.25,105.625 45.5,95.687 59.78125,105.59375 54.775,89.663 67.53125,79.96875 51.063,79.969 45.5,65.6875 39.938,79.969 z"
       style="fill:#fedc01;fill-opacity:1;stroke:none" />
  </g>
  <g
     id="g3829">
    <path
       style="fill:#ffffff;fill-opacity:1;stroke:#5b7492;stroke-width:1px;stroke-linecap:butt;stroke-linejoin:round;stroke-opacity:1"
       d="m 52.5,52 2.8,-32.5 c 0.101115,-1.173653 -0.439081,-2 -1.8,-2 l -11,0 c -1.066116,0 -1.628182,0.563637 -1.7,2 l -0.4,8 c -7.715529,-4.454563 -16.146427,0.928544 -16.4,6 l -1.2,24 c -0.409998,8.199955 13.941328,8.597776 17,3.3 0.81627,3.046362 10.993331,4.809628 12.5,2.2 0,0.835657 0.450919,1.5 1.2,1.5 l 11,0 c 0.775257,0 1.62456,-0.70296 1.7,-1.5 l 2.3,-24.3 -1.01,10.7 14.71,0 1,-16.9 C 83.372863,29.578622 80.032142,26.3 77,26.3 L 54.715,26.3 52.5,52 z"
       id="path3621" />
    <path
       id="path3624"
       d="m 83.2,32.5 c 0.149905,-2.62334 5.504644,-6.2 8.3,-6.2 l 14,0 c 3.96897,0 7.23649,2.357047 7,6.2 l -1.2,19.5 -14.5,0 14.5,0 -0.4,8.3 c -0.11895,2.468302 -1.16286,4.2 -3.1,4.2 l -19.8,0 c -3.363313,0 -6.352512,-4.831049 -6.2,-7.5 l 1.4,-24.5 z"
       style="fill:#ffffff;fill-opacity:1;stroke:#5b7492;stroke-width:1px;stroke-linecap:butt;stroke-linejoin:round;stroke-opacity:1" />
    <path
       id="path3626"
       d="m 127.5,38.7 -9.7,0 c -2.47583,0 -2.88982,-0.852762 -2.8,-2.2 l 0.5,-7.5 c 0.0933,-1.399228 1.39982,-2.7 2.8,-2.7 l 17,0 c 3.04251,0 7.25815,3.444519 7.09,6.2 L 141.2,52 142.6,29 c 0.0993,-1.631056 0.81468,-2.7 2.8,-2.7 l 10.4,0 c 0.81949,0 1.2,0.82068 1.2,1.8 0.25707,-0.959392 0.91122,-1.8 1.6,-1.8 l 7.5,0 c 0.69441,0 1.2,0.665374 1.2,1.8 0.27891,-1.04091 0.92417,-1.8 1.6,-1.8 l 10.6,0 c 4.53279,0 6.75702,3.385236 6.6,6.7 l -0.9,19 c 0.15293,-3.228501 4.67555,-3.068231 4.503,0 l -0.3093,5.5 c -0.54316,9.658581 -20.10198,9.017715 -19.3537,0 l 1.56,-18.8 -4.3,51.5 c 0.28733,-3.441242 4.76649,-3.570904 4.5,0 l -0.5,6.7 c -0.45974,6.16047 -13.99916,7.8244 -16.9,2.8 -0.90997,3.39604 -14.4,4.50622 -14.4,0 -1.21616,4.53876 -17.94357,4.27747 -17.38,-4 l 1.28,-18.8 -1.6,23.6 c -0.0771,1.13741 -1.65209,2.2 -3,2.2 l -9.7,0 c -0.95317,0 -1.45149,-0.95672 -1.5,-1.7 -0.31196,1.16424 -1.19094,1.7 -2.5,1.7 l -7.5,0 c -1.7089,0 -2.452882,-2.45095 -2.6,-3 -0.142997,0.53367 -1.294222,3 -3,3 l -9.4,0 c -1.792531,0 -2.352848,-2.07762 -2.6,-3 -0.221513,0.8267 -1.29719,3 -3,3 l -7,0 c -4.262838,0 -7.465182,-4.22485 -7,-9.4 l 3.2,-35.6 c 0.07311,-0.813345 1.119796,-2 1.8,-2 l 11.3,0 c 1.008526,0 1.784921,0.902819 1.7,2 L 79,90 79.42,84.6 c 0.25926,-3.333344 4.215911,-7.7 7.58,-7.7 l 7.5,0 -10.3,0 c -1.01015,0 -1.966814,-0.857702 -1.9,-1.9 l 0.5,-7.8 c 0.09132,-1.42453 1.232469,-2.7 2.6,-2.7 l 17.1,0 c 3.51838,0 7.25313,3.388089 7.07,6.2 l -1.27,19.5 1.5,-23 c 0.0988,-1.515688 1.23487,-2.7 2.8,-2.7 l 10.2,0 c 0.73626,0 1.2,0.46322 1.2,1.8 0.35107,-1.310204 0.92055,-1.8 1.6,-1.8 l 6.9,0 c 2.88829,0 7.07049,4.519267 6.93,6.2 l -1.63,19.5 1.7,-20.3 c 0.47003,-5.612771 13.53284,-6.066678 15.9,-4.7 l 1.8,-26.5 -1.6,23.6 c -0.0529,0.781066 -1.91526,2.2 -3,2.2 l -10.1,0 c -0.83287,0 -1.48628,-0.625644 -1.5,-1.7 -0.45584,1.132064 -1.14047,1.7 -2.5,1.7 l -7.4,0 c -1.39012,0 -2.34096,-2.033238 -2.6,-3 -0.25395,0.947764 -1.49118,3 -3,3 l -5.5,0 c -7.01679,0 -9.08503,-4.874509 -8.94,-7.5 l 0.58,-10.5 c 0.14656,-2.653266 4.94691,-7.8 8.36,-7.8 l 7.5,0 z"
       style="fill:#ffffff;fill-opacity:1;stroke:#5b7492;stroke-width:1px;stroke-linecap:butt;stroke-linejoin:round;stroke-opacity:1" />
  </g>
  <g
     id="g3858">
    <path
       id="path3644"
       d="m 42.5,19.1875 -0.59375,8.65625 c 1.612671,1.828927 3.265884,3.705888 4.53125,5.0625 1.817811,1.948893 3.414851,3.548177 5.15625,5.09375 l 1.46875,-18.8125 -10.5625,0 z M 56.46875,28 c 0,0 -0.611716,7.452045 -1.0625,13.0625 0.772453,0.607956 1.351199,1.138019 2.25,1.8125 2.058798,1.54497 4.788098,3.495497 7.84375,5.6875 L 66.3125,38.5 c 0.140359,-1.757221 2.027389,-2.1043 3.1875,-1.46875 0.0023,-0.171086 0.0625,-0.328329 0.0625,-0.5 0,-2.418403 -0.244164,-4.78205 -0.6875,-7.0625 C 68.775706,28.957998 68.557663,28.50239 68.4375,28 l -11.96875,0 z"
       style="fill:url(#linearGradient3856);fill-opacity:1;stroke:none" />
    <path
       id="path3642"
       d="M 41.90625,27.84375 41.65625,31.5 C 40.27177,26.33305 26.2458,27.006199 25.8125,34.09375 L 24.59375,57 c -0.368777,6.032136 12.753044,8.573253 15,0.1875 1.690971,6.31079 11.688577,7.005144 14.34375,2.40625 l -0.25,3 4.65625,0 c 0.474011,-0.445157 1.019693,-0.808581 1.46875,-1.28125 1.50568,-1.584852 2.866324,-3.323826 4.0625,-5.1875 0.471021,-0.733864 0.80054,-1.571727 1.21875,-2.34375 L 65.5,48.5625 c -3.055652,-2.192003 -5.784952,-4.14253 -7.84375,-5.6875 -0.898801,-0.674481 -1.477547,-1.204544 -2.25,-1.8125 -0.37741,4.697244 -0.571786,7.292824 -0.875,10.9375 -0.227945,2.739942 -4.216037,2.316619 -4.03125,0 l 1.09375,-14 c -1.741399,-1.545573 -3.338439,-3.144857 -5.15625,-5.09375 -1.265366,-1.356612 -2.918579,-3.233573 -4.53125,-5.0625 z m -3,8.75 c 1.174469,0.03732 2.283225,0.698507 2.1875,1.90625 L 40.03125,52 c -0.220032,2.776099 -5.021817,2.640911 -4.8125,0 L 36.3125,38.5 c 0.08972,-1.13193 1.052487,-1.751069 2.09375,-1.875 0.167346,-0.01992 0.332219,-0.03658 0.5,-0.03125 z"
       style="fill:url(#linearGradient3853);fill-opacity:1;stroke:none" />
    <path
       style="fill:url(#linearGradient3850);fill-opacity:1;stroke:none"
       d="m 147.8125,28 c 0.0586,1.175593 0.0768,2.3712 0.1875,3.53125 0.2321,2.432723 0.57843,4.832084 1.03125,7.1875 0.45282,2.355416 0.99411,4.671515 1.65625,6.9375 0.66214,2.265985 1.42118,4.460572 2.28125,6.625 0.37654,0.947594 0.83709,1.854793 1.25,2.78125 l 1.1875,-16.375 c 0.14028,-1.972136 3.63624,-1.972239 3.5,0 l -1.5625,22.59375 c 0.62605,1.110235 1.22681,2.242005 1.90625,3.3125 1.22175,1.92494 2.52074,3.775492 3.90625,5.5625 1.17637,1.517259 2.46318,2.934005 3.75,4.34375 l 2.90625,-35.8125 c 0.15674,-1.933418 3.6549,-1.972452 3.5,0 l -1.5,19.125 c -0.52577,6.694795 15.40396,6.830135 15.875,0 L 188.09375,52 c 0.0756,-1.096345 -1.16248,-1.134528 -1.28125,0 -0.21495,2.053336 -3.50348,1.827937 -3.40625,0 l 1,-18.8125 C 184.55101,30.465967 183.14021,28 178.8125,28 l -7,0 c -1.95962,0 -3.3627,1.518945 -4.875,3.03125 C 166.43666,29.162089 165.37986,28 163.8125,28 L 160.5,28 c -1.51542,0 -3.39465,1.131226 -4.4375,2.9375 C 155.51369,28.889325 154.51337,28 153.09375,28 l -5.28125,0 z"
       id="path3630" />
    <path
       style="fill:url(#linearGradient3847);fill-opacity:1;stroke:none"
       d="m 159.46875,64.9375 c -0.73647,0.791324 -1.42941,1.691998 -2.1875,2.40625 -0.1242,0.117014 -0.2504,0.197472 -0.375,0.3125 l -0.0937,1.4375 c 0,-0.376423 -0.23055,-0.691119 -0.4375,-1 -1.43335,1.286503 -2.87613,2.513423 -4.3125,3.5625 -3.47688,2.539395 -6.84974,4.438268 -9.59375,5.9375 -0.68804,0.375919 -1.31826,0.804948 -2,1.1875 L 139.5,90.1875 c -0.16777,1.98182 -3.56153,1.834268 -3.40625,0 L 136.875,80.875 c -1.16938,0.69595 -2.40246,1.34048 -3.53125,2.0625 -2.91884,1.867009 -5.6806,3.827897 -8.1875,5.90625 -0.18875,0.156487 -0.3142,0.342152 -0.5,0.5 L 124.1875,96 c -0.30825,4.52892 11.48884,8.69245 16.21875,0.5 0.7955,6.92908 12.77853,5.25833 14.1875,0 1.91855,7.16013 14.71332,4.79343 15.09375,0 l 0.5,-6.3125 c 0.0795,-1.00217 -1.15502,-1.109309 -1.28125,0 -0.23443,2.060136 -3.42512,1.774727 -3.28125,0 L 166.90625,74.5 c -1.28682,-1.409745 -2.57363,-2.826491 -3.75,-4.34375 -1.30254,-1.679997 -2.53018,-3.41742 -3.6875,-5.21875 z M 153.625,75 c 0.99226,-0.01112 1.94973,0.414479 1.90625,1.3125 L 154.84375,90.5 c -0.10199,2.106488 -4.10184,2.012012 -4,0 l 0.71875,-14.1875 c 0.0432,-0.853538 1.07024,-1.301379 2.0625,-1.3125 z m -32.65625,18.03125 c -0.79163,0.82715 -1.76973,1.571923 -2.46875,2.4375 -0.94612,1.17155 -1.80805,2.37725 -2.5625,3.625 -0.35289,0.58362 -0.59937,1.21113 -0.90625,1.8125 l 5.375,0 0.5625,-7.875 z"
       id="path3671" />
    <path
       style="fill:url(#linearGradient3844);fill-opacity:1;stroke:none"
       d="m 144.90625,28 -1.59375,24 c -0.17048,2.557224 -4.26126,2.341981 -4.125,0 l 1.125,-18.90625 c 0.1013,-1.702339 -1.6356,-3.918695 -3.625,-4.71875 -0.12486,2.187384 -0.10594,4.363183 -0.40625,6.53125 -0.29024,2.095411 -0.69382,4.160843 -1.1875,6.1875 -0.49368,2.026657 -1.07649,3.998193 -1.8125,5.90625 -0.73601,1.908057 -1.60779,3.76039 -2.625,5.5 -1.01721,1.73961 -2.19395,3.384934 -3.53125,4.90625 -1.3373,1.521316 -2.83499,2.903074 -4.53125,4.15625 -0.53044,0.391886 -1.21321,0.668785 -1.78125,1.03125 l 3.28125,0 c 2.21976,0 3.90473,-2.222069 4.40625,-4.09375 0.47392,1.768687 2.61959,4.09375 4.3125,4.09375 l 4.375,0 c 2.20939,0 3.56281,-1.226611 4.40625,-2.6875 0,1.605495 0.94314,2.686915 1.90625,2.6875 l 10.1875,0 0.53125,-7.53125 c -0.41291,-0.926457 -0.87346,-1.833656 -1.25,-2.78125 -0.86007,-2.164428 -1.61911,-4.359015 -2.28125,-6.625 -0.66214,-2.265985 -1.20343,-4.582084 -1.65625,-6.9375 C 148.57838,36.363334 148.2321,33.963973 148,31.53125 147.88932,30.3712 147.87108,29.175593 147.8125,28 l -2.90625,0 z m 12.4375,33.28125 -0.4375,6.375 c 0.1246,-0.115028 0.2508,-0.195486 0.375,-0.3125 0.75809,-0.714252 1.45103,-1.614926 2.1875,-2.40625 -0.0737,-0.11474 -0.14559,-0.228479 -0.21875,-0.34375 -0.67944,-1.070495 -1.2802,-2.202265 -1.90625,-3.3125 z m -6.8125,4.8125 c -0.37513,-0.0063 -0.743,0.01077 -1.125,0.03125 -3.92917,0.210696 -8.03002,1.850663 -8.3125,5.1875 l -0.625,7.46875 c 0.68174,-0.382552 1.31196,-0.811581 2,-1.1875 2.74401,-1.499232 6.11687,-3.398105 9.59375,-5.9375 1.43637,-1.049077 2.87915,-2.275997 4.3125,-3.5625 -0.83843,-1.251401 -3.21784,-1.955776 -5.84375,-2 z M 114.5,66.1875 c -0.93666,0.486853 -1.86969,0.950991 -2.78125,1.5 l -1.625,22.5 c -0.15366,2.169339 -3.90519,1.849554 -3.78125,0 l 1.28125,-19.375 c 0.006,-0.09157 -0.0576,-0.188562 -0.0625,-0.28125 -1.06862,0.780054 -2.19941,1.499034 -3.21875,2.34375 -1.9346,1.603179 -3.76938,3.297757 -5.5,5.0625 -1.73062,1.764743 -3.351784,3.604652 -4.84375,5.4375 -1.491966,1.832848 -2.843873,3.661256 -4.0625,5.46875 -1.218627,1.807494 -2.308143,3.592568 -3.21875,5.28125 -0.910607,1.688682 -1.650845,3.27359 -2.21875,4.75 -0.265799,0.69101 -0.346098,1.24552 -0.53125,1.875 0.190374,0.0482 0.362167,0.15625 0.5625,0.15625 l 6.40625,0 c 2.737017,0 4.280699,-2.88805 4.6875,-4.40625 0.40244,1.50192 1.79465,4.40625 4.40625,4.40625 l 5.90625,0 c 1.04402,4e-5 2.0181,-1.25907 2.5,-2.09375 0.25581,0.9547 0.82623,2.09375 1.78125,2.09375 l 4.84375,0 c 0.30688,-0.60137 0.55336,-1.22888 0.90625,-1.8125 0.75445,-1.24775 1.61638,-2.45345 2.5625,-3.625 0.69902,-0.865577 1.67712,-1.61035 2.46875,-2.4375 l 1.125,-16.125 c 0.1465,-2.068747 3.54269,-2.004574 3.40625,0 l -0.84375,12.4375 c 0.1858,-0.157848 0.31125,-0.343513 0.5,-0.5 2.5069,-2.078353 5.26866,-4.039241 8.1875,-5.90625 1.12879,-0.72202 2.36187,-1.36655 3.53125,-2.0625 l 0.8125,-9.5625 c 0.14061,-1.66093 -3.18108,-5.125 -5.375,-5.125 l -5.3125,0 c -1.2152,0 -3.03004,1.655042 -3.59375,2.21875 -0.007,-0.686673 -0.9011,-2.21875 -1.8125,-2.21875 l -7.09375,0 z M 92.8125,88 95.5,88 95.28125,90.6875 C 95.166755,92.092661 93.219894,92.501144 92.0625,91.34375 90.905106,90.186356 91.569581,88 92.8125,88 z"
       id="path3705" />
    <path
       style="fill:url(#linearGradient3841);fill-opacity:1;stroke:none"
       d="m 103.1875,28 c 0.0275,0.152381 7.4e-4,0.249627 0.0312,0.40625 0.28984,1.48806 0.71995,3.168904 1.25,4.96875 1.06009,3.599691 2.55813,7.675374 4.28125,11.75 0.25464,0.602151 0.5796,1.119132 0.84375,1.71875 l 1.09375,-13.75 C 110.89671,30.492124 108.54221,28 105,28 l -1.8125,0 z m 14.21875,0 -0.59375,9 10.6875,0 c 1.70551,0 1.69706,3.3125 0,3.3125 l -7.3125,0 c -2.24823,0 -6.65351,4.267208 -6.78125,6.375 l -0.4375,7.15625 c 0.49459,0.948358 0.93542,2.049003 1.4375,2.9375 0.99454,1.759976 1.98217,3.384244 2.96875,4.8125 0.27359,0.396074 0.54196,0.635757 0.8125,1 l 2.625,0 c 0.56804,-0.362465 1.25081,-0.639364 1.78125,-1.03125 1.69626,-1.253176 3.19395,-2.634934 4.53125,-4.15625 1.3373,-1.521316 2.51404,-3.16664 3.53125,-4.90625 1.01721,-1.73961 1.88899,-3.591943 2.625,-5.5 0.73601,-1.908057 1.31882,-3.879593 1.8125,-5.90625 0.49368,-2.026657 0.89726,-4.092089 1.1875,-6.1875 0.30031,-2.168067 0.28139,-4.343866 0.40625,-6.53125 C 136.23138,28.191566 135.77828,28 135.3125,28 l -17.90625,0 z m 8.40625,22 2.1875,0 -0.1875,2.1875 c -0.14546,1.777886 -2.05174,2.260755 -3.15625,1.15625 C 123.55709,52.244586 124.06458,50 125.8125,50 z"
       id="path3716" />
    <path
       style="fill:url(#linearGradient3838);fill-opacity:1;stroke:none"
       d="m 92,28 c -2.140624,0 -6.79937,2.561028 -7,5.875 0.84702,1.784586 1.674814,3.554109 2.34375,5.25 0.831739,2.108631 1.523035,4.144314 2.09375,6.125 0.570715,1.980686 1.018216,3.887087 1.34375,5.75 0.325534,1.862913 0.528804,3.682189 0.625,5.4375 0.0962,1.755311 0.08605,3.467118 -0.03125,5.125 -0.02493,0.352298 -0.09087,0.683073 -0.125,1.03125 l 17.09375,0 0.6875,-8.59375 -12.4375,0 c -2.56989,0 -2.599886,-4.09375 0.0937,-4.09375 l 12.65625,0 0.25,-3.0625 c -0.2641,-0.599618 -0.58906,-1.116599 -0.8437,-1.71875 -1.72312,-4.074626 -3.22116,-8.150309 -4.28125,-11.75 -0.53005,-1.799846 -0.96016,-3.48069 -1.25,-4.96875 -0.0305,-0.156623 -0.004,-0.253869 -0.0312,-0.40625 L 92,28 z m 6.25,9.125 c 0.89655,-0.01499 1.72301,0.544015 1.625,1.6875 L 99.6875,41 97.5,41 c -1.540511,0 -1.827214,-2.172786 -0.75,-3.25 0.40395,-0.403955 0.96207,-0.616006 1.5,-0.625 z m 14.71875,16.71875 -0.15625,2.75 c -0.18002,2.970252 3.18526,6 4.875,6 l 0.5,0 c -0.27054,-0.364243 -0.53891,-0.603926 -0.8125,-1 -0.98658,-1.428256 -1.97421,-3.052524 -2.96875,-4.8125 -0.50208,-0.888497 -0.94291,-1.989142 -1.4375,-2.9375 z M 90.75,66.1875 c -0.01385,0.07117 -0.01701,0.147749 -0.03125,0.21875 C 90.403797,67.976874 89.996763,69.506461 89.5,71 c -0.475963,1.431001 -1.058873,2.818122 -1.6875,4.1875 l 6.6875,0 c 3.22099,0 1.134147,3.40625 0,3.40625 l -7,0 c -0.4888,0 -1.120216,0.219658 -1.78125,0.59375 -0.07078,0.121569 -0.115606,0.253839 -0.1875,0.375 -1.196107,2.015767 -2.677473,3.923627 -4.15625,5.84375 L 81,90 c -0.211054,2.638173 -3.419405,2.440279 -4.03125,0.65625 -1.346777,1.47828 -2.626558,2.98234 -4.09375,4.4375 -1.581397,1.56843 -3.30927,3.12631 -5,4.6875 0.756323,0.65968 1.598769,1.125 2.4375,1.125 l 5.5,0 c 2.0176,0 4.162196,-2.44579 4.6875,-4.40625 0.463765,1.7308 1.757452,3.82488 3.4375,4.25 0.185152,-0.62948 0.265451,-1.18399 0.53125,-1.875 0.567905,-1.47641 1.308143,-3.061318 2.21875,-4.75 0.910607,-1.688682 2.000123,-3.473756 3.21875,-5.28125 1.218627,-1.807494 2.570534,-3.635902 4.0625,-5.46875 1.491966,-1.832848 3.11313,-3.672757 4.84375,-5.4375 1.73062,-1.764743 3.5654,-3.459321 5.5,-5.0625 1.01934,-0.844716 2.15013,-1.563696 3.21875,-2.34375 -0.10999,-2.06352 -2.82581,-4.34375 -4.9375,-4.34375 l -11.84375,0 z m 21.0625,0 -0.0937,1.5 c 0.91156,-0.549009 1.84459,-1.013147 2.78125,-1.5 l -2.6875,0 z"
       id="path3768" />
    <path
       style="fill:url(#linearGradient3835);fill-opacity:1;stroke:none"
       d="m 68.4375,28 c 0.120163,0.50239 0.338206,0.957998 0.4375,1.46875 0.443336,2.28045 0.6875,4.644097 0.6875,7.0625 0,0.171671 -0.06016,0.328914 -0.0625,0.5 0.539731,0.295684 0.965019,0.734141 0.90625,1.46875 L 69.625,48 l 10.6875,0 1,-14.90625 C 81.464292,30.809198 79.519574,28 76.59375,28 L 68.4375,28 z M 85,33.875 83.59375,57 c -0.134815,2.226863 2.476617,5.59375 4.71875,5.59375 l 2.9375,0 c 0.03413,-0.348177 0.100074,-0.678952 0.125,-1.03125 0.1173,-1.657882 0.127446,-3.369689 0.03125,-5.125 C 91.310054,54.682189 91.106784,52.862913 90.78125,51 90.455716,49.137087 90.008215,47.230686 89.4375,45.25 88.866785,43.269314 88.175489,41.233631 87.34375,39.125 86.674814,37.429109 85.84702,35.659586 85,33.875 z M 65.09375,53.78125 c -0.41821,0.772023 -0.747729,1.609886 -1.21875,2.34375 -1.196176,1.863674 -2.55682,3.602648 -4.0625,5.1875 -0.449057,0.472669 -0.994739,0.836093 -1.46875,1.28125 l 6.03125,0 0.71875,-8.8125 z m 3.71875,4.03125 -2.96875,37.125 c -0.160849,2.01638 0.786454,3.75802 2.03125,4.84375 1.69073,-1.56119 3.418603,-3.11907 5,-4.6875 1.467192,-1.45516 2.746973,-2.95922 4.09375,-4.4375 C 76.89187,90.432082 76.696793,90.275105 76.71875,90 l 2.59375,-32.1875 -10.5,0 z m 16.09375,8.375 -0.71875,9 3.625,0 C 88.441127,73.818122 89.024037,72.431001 89.5,71 c 0.496763,-1.493539 0.903797,-3.023126 1.21875,-4.59375 0.01424,-0.071 0.0174,-0.147581 0.03125,-0.21875 l -5.84375,0 z m 0.8125,13 C 83.808294,80.268665 81.592842,82.667591 81.40625,85 L 81.375,85.40625 c 1.478777,-1.920123 2.960143,-3.827983 4.15625,-5.84375 0.07189,-0.121161 0.116724,-0.253431 0.1875,-0.375 z"
       id="path3772" />
  </g>
</svg>
